<svg width="800" height="460" viewBox="0 0 800 460" xmlns="http://www.w3.org/2000/svg">
  <defs>
    <style>
      text { font-family: 'JetBrains Mono', 'Courier New', monospace; }
    </style>
  </defs>
  <rect width="800" height="460" fill="#0d1117" rx="10"/>

  <!-- section prompt -->
  <text x="20" y="30" fill="#6e7681" font-size="12">$</text>
  <text x="34" y="30" fill="#c9d1d9" font-size="12">ls ./projects --pinned</text>

  <!-- ── CARD 1: real-estate-platform ── -->
  <rect x="14" y="46" width="372" height="120" rx="8" fill="#161b22" stroke="#30363d" stroke-width="1"/>
  <text x="30" y="70" fill="#58a6ff" font-size="12" font-weight="500">🏢 real-estate-platform</text>
  <text x="30" y="90" fill="#8b949e" font-size="10">Plataforma inmobiliaria premium con showroom</text>
  <text x="30" y="104" fill="#8b949e" font-size="10">3D y CRM integrado. +30% conversión de ventas.</text>
  <!-- tags -->
  <rect x="30" y="115" width="44" height="16" rx="3" fill="#0d1117" stroke="#21262d" stroke-width="1"/>
  <text x="52" y="127" fill="#8b949e" font-size="9" text-anchor="middle">Next.js</text>
  <rect x="80" y="115" width="54" height="16" rx="3" fill="#0d1117" stroke="#21262d" stroke-width="1"/>
  <text x="107" y="127" fill="#8b949e" font-size="9" text-anchor="middle">TypeScript</text>
  <rect x="140" y="115" width="40" height="16" rx="3" fill="#0d1117" stroke="#21262d" stroke-width="1"/>
  <text x="160" y="127" fill="#8b949e" font-size="9" text-anchor="middle">Python</text>
  <rect x="186" y="115" width="46" height="16" rx="3" fill="#0d1117" stroke="#21262d" stroke-width="1"/>
  <text x="209" y="127" fill="#8b949e" font-size="9" text-anchor="middle">MongoDB</text>
  <rect x="238" y="115" width="42" height="16" rx="3" fill="#0d1117" stroke="#21262d" stroke-width="1"/>
  <text x="259" y="127" fill="#8b949e" font-size="9" text-anchor="middle">Node.js</text>
  <!-- metric badge -->
  <text x="362" y="70" fill="#3fb950" font-size="10" text-anchor="end">+30% ventas</text>

  <!-- ── CARD 2: audit-bot ── -->
  <rect x="414" y="46" width="372" height="120" rx="8" fill="#161b22" stroke="#30363d" stroke-width="1"/>
  <text x="430" y="70" fill="#58a6ff" font-size="12" font-weight="500">🤖 audit-bot-bytecraft</text>
  <text x="430" y="90" fill="#8b949e" font-size="10">Bot Python para auditoría automática de clases</text>
  <text x="430" y="104" fill="#8b949e" font-size="10">en tiempo real. Automatiza el 85% del trabajo.</text>
  <rect x="430" y="115" width="40" height="16" rx="3" fill="#0d1117" stroke="#21262d" stroke-width="1"/>
  <text x="450" y="127" fill="#8b949e" font-size="9" text-anchor="middle">Python</text>
  <rect x="476" y="115" width="32" height="16" rx="3" fill="#0d1117" stroke="#21262d" stroke-width="1"/>
  <text x="492" y="127" fill="#8b949e" font-size="9" text-anchor="middle">RPA</text>
  <rect x="514" y="115" width="70" height="16" rx="3" fill="#0d1117" stroke="#21262d" stroke-width="1"/>
  <text x="549" y="127" fill="#8b949e" font-size="9" text-anchor="middle">Google Cloud</text>
  <rect x="590" y="115" width="56" height="16" rx="3" fill="#0d1117" stroke="#21262d" stroke-width="1"/>
  <text x="618" y="127" fill="#8b949e" font-size="9" text-anchor="middle">Zoho API</text>
  <text x="780" y="70" fill="#3fb950" font-size="10" text-anchor="end">85% automated</text>

  <!-- ── CARD 3: ml-churn-pipeline ── -->
  <rect x="14" y="182" width="372" height="120" rx="8" fill="#161b22" stroke="#30363d" stroke-width="1"/>
  <text x="30" y="206" fill="#58a6ff" font-size="12" font-weight="500">📊 ml-churn-pipeline</text>
  <text x="30" y="226" fill="#8b949e" font-size="10">Pipelines para +5M registros/mes. Modelos ML</text>
  <text x="30" y="240" fill="#8b949e" font-size="10">churn/segmentación con 82% accuracy.</text>
  <rect x="30" y="251" width="40" height="16" rx="3" fill="#0d1117" stroke="#21262d" stroke-width="1"/>
  <text x="50" y="263" fill="#8b949e" font-size="9" text-anchor="middle">Python</text>
  <rect x="76" y="251" width="60" height="16" rx="3" fill="#0d1117" stroke="#21262d" stroke-width="1"/>
  <text x="106" y="263" fill="#8b949e" font-size="9" text-anchor="middle">Scikit-learn</text>
  <rect x="142" y="251" width="36" height="16" rx="3" fill="#0d1117" stroke="#21262d" stroke-width="1"/>
  <text x="160" y="263" fill="#8b949e" font-size="9" text-anchor="middle">SQL</text>
  <rect x="184" y="251" width="40" height="16" rx="3" fill="#0d1117" stroke="#21262d" stroke-width="1"/>
  <text x="204" y="263" fill="#8b949e" font-size="9" text-anchor="middle">Pandas</text>
  <text x="362" y="206" fill="#3fb950" font-size="10" text-anchor="end">82% accuracy</text>

  <!-- ── CARD 4: bi-dashboard-suite ── -->
  <rect x="414" y="182" width="372" height="120" rx="8" fill="#161b22" stroke="#30363d" stroke-width="1"/>
  <text x="430" y="206" fill="#58a6ff" font-size="12" font-weight="500">📈 bi-dashboard-suite</text>
  <text x="430" y="226" fill="#8b949e" font-size="10">+20 dashboards ejecutivos Power BI / Tableau.</text>
  <text x="430" y="240" fill="#8b949e" font-size="10">–65% en tiempos de auditoría y reporting.</text>
  <rect x="430" y="251" width="50" height="16" rx="3" fill="#0d1117" stroke="#21262d" stroke-width="1"/>
  <text x="455" y="263" fill="#8b949e" font-size="9" text-anchor="middle">Power BI</text>
  <rect x="486" y="251" width="46" height="16" rx="3" fill="#0d1117" stroke="#21262d" stroke-width="1"/>
  <text x="509" y="263" fill="#8b949e" font-size="9" text-anchor="middle">Tableau</text>
  <rect x="538" y="251" width="36" height="16" rx="3" fill="#0d1117" stroke="#21262d" stroke-width="1"/>
  <text x="556" y="263" fill="#8b949e" font-size="9" text-anchor="middle">SQL</text>
  <text x="780" y="206" fill="#3fb950" font-size="10" text-anchor="end">–65% audit time</text>

  <!-- ── METRICS ROW ── -->
  <line x1="0" y1="326" x2="800" y2="326" stroke="#21262d" stroke-width="1"/>
  <text x="20" y="352" fill="#6e7681" font-size="12">$</text>
  <text x="34" y="352" fill="#c9d1d9" font-size="12">cat impact_metrics.log</text>

  <!-- 4 metric cards -->
  <rect x="14" y="364" width="178" height="80" rx="8" fill="#161b22" stroke="#30363d" stroke-width="1"/>
  <text x="104" y="396" fill="#3fb950" font-size="22" font-weight="700" text-anchor="middle">82%</text>
  <text x="104" y="414" fill="#6e7681" font-size="9" text-anchor="middle">ML model accuracy</text>
  <text x="104" y="428" fill="#484f58" font-size="9" text-anchor="middle">churn detection</text>

  <rect x="204" y="364" width="178" height="80" rx="8" fill="#161b22" stroke="#30363d" stroke-width="1"/>
  <text x="293" y="396" fill="#79c0ff" font-size="22" font-weight="700" text-anchor="middle">+5M</text>
  <text x="293" y="414" fill="#6e7681" font-size="9" text-anchor="middle">records / month</text>
  <text x="293" y="428" fill="#484f58" font-size="9" text-anchor="middle">processed &amp; audited</text>

  <rect x="394" y="364" width="178" height="80" rx="8" fill="#161b22" stroke="#30363d" stroke-width="1"/>
  <text x="483" y="396" fill="#e3b341" font-size="22" font-weight="700" text-anchor="middle">80%</text>
  <text x="483" y="414" fill="#6e7681" font-size="9" text-anchor="middle">tasks automated</text>
  <text x="483" y="428" fill="#484f58" font-size="9" text-anchor="middle">via RPA &amp; scripting</text>

  <rect x="584" y="364" width="202" height="80" rx="8" fill="#161b22" stroke="#30363d" stroke-width="1"/>
  <text x="685" y="396" fill="#3fb950" font-size="22" font-weight="700" text-anchor="middle">15+</text>
  <text x="685" y="414" fill="#6e7681" font-size="9" text-anchor="middle">corporate clients</text>
  <text x="685" y="428" fill="#484f58" font-size="9" text-anchor="middle">retail · fintech · edtech</text>
</svg>
